<svg width="79" height="79" viewBox="0 0 79 79" fill="none" xmlns="http://www.w3.org/2000/svg">
<g clip-path="url(#clip0_1_5)">
<rect width="79" height="79" fill="white"/>
<path d="M41.7273 67.2727C37.0909 67.2727 32.9924 66.6364 29.4318 65.3636C25.8712 64.1061 22.8788 62.25 20.4545 59.7955C18.0303 57.3409 16.197 54.3333 14.9545 50.7727C13.7121 47.2121 13.0909 43.1364 13.0909 38.5455C13.0909 34.1061 13.7197 30.1364 14.9773 26.6364C16.25 23.1364 18.0909 20.1667 20.5 17.7273C22.9242 15.2727 25.8636 13.4015 29.3182 12.1136C32.7879 10.8258 36.7121 10.1818 41.0909 10.1818C45.3485 10.1818 49.0758 10.8788 52.2727 12.2727C55.4849 13.6515 58.1667 15.5227 60.3182 17.8864C62.4849 20.2348 64.1061 22.8788 65.1818 25.8182C66.2727 28.7576 66.8182 31.7879 66.8182 34.9091C66.8182 37.1061 66.7121 39.3333 66.5 41.5909C66.2879 43.8485 65.8409 45.9242 65.1591 47.8182C64.4773 49.697 63.4242 51.2121 62 52.3636C60.5909 53.5152 58.6818 54.0909 56.2727 54.0909C55.2121 54.0909 54.0455 53.9242 52.7727 53.5909C51.5 53.2576 50.3712 52.7045 49.3864 51.9318C48.4015 51.1591 47.8182 50.1212 47.6364 48.8182H47.3636C47 49.697 46.4394 50.5303 45.6818 51.3182C44.9394 52.1061 43.9621 52.7348 42.75 53.2045C41.553 53.6742 40.0909 53.8788 38.3636 53.8182C36.3939 53.7424 34.6591 53.303 33.1591 52.5C31.6591 51.6818 30.4015 50.5758 29.3864 49.1818C28.3864 47.7727 27.6288 46.1439 27.1136 44.2955C26.6136 42.4318 26.3636 40.4242 26.3636 38.2727C26.3636 36.2273 26.6667 34.3561 27.2727 32.6591C27.8788 30.9621 28.7197 29.4773 29.7955 28.2045C30.8864 26.9318 32.1591 25.9167 33.6136 25.1591C35.0833 24.3864 36.6667 23.9091 38.3636 23.7273C39.8788 23.5758 41.2576 23.6439 42.5 23.9318C43.7424 24.2045 44.7652 24.6212 45.5682 25.1818C46.3712 25.7273 46.8788 26.3333 47.0909 27H47.3636V24.4545H52.1818V45C52.1818 46.2727 52.5379 47.3939 53.25 48.3636C53.9621 49.3333 55 49.8182 56.3636 49.8182C57.9091 49.8182 59.0909 49.2879 59.9091 48.2273C60.7424 47.1667 61.3106 45.5303 61.6136 43.3182C61.9318 41.1061 62.0909 38.2727 62.0909 34.8182C62.0909 32.7879 61.8106 30.7879 61.25 28.8182C60.7045 26.8333 59.8712 24.9773 58.75 23.25C57.6439 21.5227 56.2424 20 54.5455 18.6818C52.8485 17.3636 50.8561 16.3333 48.5682 15.5909C46.2955 14.8333 43.7121 14.4545 40.8182 14.4545C37.2576 14.4545 34.0682 15.0076 31.25 16.1136C28.447 17.2045 26.0606 18.803 24.0909 20.9091C22.1364 23 20.6439 25.5455 19.6136 28.5455C18.5985 31.5303 18.0909 34.9242 18.0909 38.7273C18.0909 42.5909 18.5985 46.0227 19.6136 49.0227C20.6439 52.0227 22.1591 54.553 24.1591 56.6136C26.1742 58.6742 28.6667 60.2348 31.6364 61.2955C34.6061 62.3712 38.0303 62.9091 41.9091 62.9091C43.5758 62.9091 45.2197 62.75 46.8409 62.4318C48.4621 62.1136 49.8939 61.7652 51.1364 61.3864C52.3788 61.0076 53.2727 60.7273 53.8182 60.5455L55.0909 64.7273C54.1515 65.1212 52.9242 65.5152 51.4091 65.9091C49.9091 66.303 48.303 66.6288 46.5909 66.8864C44.8939 67.1439 43.2727 67.2727 41.7273 67.2727ZM39.0909 49.1818C41.1212 49.1818 42.7652 48.7727 44.0227 47.9545C45.2803 47.1364 46.197 45.9015 46.7727 44.25C47.3485 42.5985 47.6364 40.5152 47.6364 38C47.6364 35.4545 47.3182 33.4697 46.6818 32.0455C46.0455 30.6212 45.1061 29.6212 43.8636 29.0455C42.6212 28.4697 41.0909 28.1818 39.2727 28.1818C37.5455 28.1818 36.0682 28.6364 34.8409 29.5455C33.6288 30.4394 32.697 31.6364 32.0455 33.1364C31.4091 34.6212 31.0909 36.2424 31.0909 38C31.0909 39.9394 31.3485 41.7652 31.8636 43.4773C32.3788 45.1742 33.2197 46.553 34.3864 47.6136C35.553 48.6591 37.1212 49.1818 39.0909 49.1818Z" fill="black"/>
<rect x="47" y="24" width="9" height="32" fill="white"/>
<rect x="26" y="21" width="24" height="33" fill="white"/>
<path d="M49.5568 58V23.0909H27.1932V28.392H43.233V37.8693H28.7273V43.1705H43.233V58H49.5568Z" fill="black"/>
<rect x="49" y="49.8" width="7" height="4.3" fill="black"/>
<rect x="43" y="54.1" width="7" height="5" fill="white"/>
</g>
<defs>
<clipPath id="clip0_1_5">
<rect width="79" height="79" fill="white"/>
</clipPath>
</defs>
</svg>
